name rise30.3154peak39.0474fall46.5389.mot
datacolumns 19
datarows 12
range 16.30327700000000 16.32160500000000
endheader
time	ground_force1_vx	ground_force1_vy	ground_force1_vz	ground_force1_px	ground_force1_py	ground_force1_pz	ground_force2_vx	ground_force2_vy	ground_force2_vz	ground_force2_px	ground_force2_py	ground_force2_pz	ground_torque1_x	ground_torque1_y	ground_torque1_z	ground_torque2_x	ground_torque2_y	ground_torque2_z	
16.30327700000000	59.12954000000000	750.83768699999996	59.72659100000000	0.38939500000000	0.00000000000000	0.13268600000000	0.00000000000000	0.00000000000000	0.00000000000000	0.00000000000000	0.00000000000000	0.00000000000000	0.00000000000000	29.46909700000000	0.00000000000000	0.00000000000000	0.00000000000000	0.00000000000000	
16.30495500000000	58.30504100000000	752.58253900000000	59.68864000000000	0.38768000000000	0.00000000000000	0.13277200000000	0.00000000000000	0.00000000000000	0.00000000000000	0.00000000000000	0.00000000000000	0.00000000000000	0.00000000000000	29.46562900000000	0.00000000000000	0.00000000000000	0.00000000000000	0.00000000000000	
16.30660400000000	57.48929200000000	754.25112300000001	59.65036000000000	0.38597100000000	0.00000000000000	0.13285900000000	0.00000000000000	0.00000000000000	0.00000000000000	0.00000000000000	0.00000000000000	0.00000000000000	0.00000000000000	29.46134500000000	0.00000000000000	0.00000000000000	0.00000000000000	0.00000000000000	
16.30827200000000	56.68267100000000	755.84168799999998	59.61177400000000	0.38426900000000	0.00000000000000	0.13294700000000	0.00000000000000	0.00000000000000	0.00000000000000	0.00000000000000	0.00000000000000	0.00000000000000	0.00000000000000	29.45623600000000	0.00000000000000	0.00000000000000	0.00000000000000	0.00000000000000	
16.30993700000000	55.88546100000000	757.35251900000003	59.57283800000000	0.38257400000000	0.00000000000000	0.13303600000000	0.00000000000000	0.00000000000000	0.00000000000000	0.00000000000000	0.00000000000000	0.00000000000000	0.00000000000000	29.45025500000000	0.00000000000000	0.00000000000000	0.00000000000000	0.00000000000000	
16.31160600000000	55.09786100000000	758.78195600000004	59.53344900000000	0.38088700000000	0.00000000000000	0.13312500000000	0.00000000000000	0.00000000000000	0.00000000000000	0.00000000000000	0.00000000000000	0.00000000000000	0.00000000000000	29.44332300000000	0.00000000000000	0.00000000000000	0.00000000000000	0.00000000000000	
16.31327400000000	54.31998600000000	760.12840400000005	59.49344900000000	0.37920900000000	0.00000000000000	0.13321500000000	0.00000000000000	0.00000000000000	0.00000000000000	0.00000000000000	0.00000000000000	0.00000000000000	0.00000000000000	29.43533100000000	0.00000000000000	0.00000000000000	0.00000000000000	0.00000000000000	
16.31494400000000	53.55187200000000	761.39035300000000	59.45262600000000	0.37754100000000	0.00000000000000	0.13330500000000	0.00000000000000	0.00000000000000	0.00000000000000	0.00000000000000	0.00000000000000	0.00000000000000	0.00000000000000	29.42614000000000	0.00000000000000	0.00000000000000	0.00000000000000	0.00000000000000	
16.31660500000000	52.79348000000000	762.56638799999996	59.41072000000000	0.37588200000000	0.00000000000000	0.13339600000000	0.00000000000000	0.00000000000000	0.00000000000000	0.00000000000000	0.00000000000000	0.00000000000000	0.00000000000000	29.41558900000000	0.00000000000000	0.00000000000000	0.00000000000000	0.00000000000000	
16.31827000000000	52.04470600000000	763.65520400000003	59.36742900000000	0.37423300000000	0.00000000000000	0.13348700000000	0.00000000000000	0.00000000000000	0.00000000000000	0.00000000000000	0.00000000000000	0.00000000000000	0.00000000000000	29.40349200000000	0.00000000000000	0.00000000000000	0.00000000000000	0.00000000000000	
16.31994400000000	51.30538000000000	764.65561900000000	59.32241000000000	0.37259500000000	0.00000000000000	0.13357800000000	0.00000000000000	0.00000000000000	0.00000000000000	0.00000000000000	0.00000000000000	0.00000000000000	0.00000000000000	29.38964700000000	0.00000000000000	0.00000000000000	0.00000000000000	0.00000000000000	
16.32160500000000	50.57527700000000	765.56658400000003	59.27528800000000	0.37096700000000	0.00000000000000	0.13366900000000	0.00000000000000	0.00000000000000	0.00000000000000	0.00000000000000	0.00000000000000	0.00000000000000	0.00000000000000	29.37383500000000	0.00000000000000	0.00000000000000	0.00000000000000	0.00000000000000	
